<?xml version="1.0" encoding="UTF-8"?>
<svg xmlns="http://www.w3.org/2000/svg" viewBox="0 0 720 720">
  <defs>
    <style>
      .cls-1, .cls-2 {
        stroke-width: 0px;
      }

      .cls-2 {
        fill: #f7f6f4;
      }
    </style>
  </defs>
  <g id="Layer_2" data-name="Layer 2">
    <rect class="cls-1" width="720" height="720"/>
  </g>
  <g id="Layer_1" data-name="Layer 1">
    <path class="cls-2" d="m0,0v720h720V0H0Zm598.93,227.75l1.8-8.21,17.05,3.73-3.39,15.5c-3.15,14.41-11.5,19.89-25.6,16.81l-40.14-8.78-2.1,9.61-16.43-3.59,2.1-9.61-22.01-4.81,4.51-20.61,22.01,4.81,3.56-16.27,16.43,3.59-3.56,16.27,36.26,7.93c4.8,1.05,8.15-.16,9.51-6.36Zm-123.79-140.92l3.41,10.13.57-.21c1.44-9.32,6.79-16.01,15.67-19.29,10.32-3.81,18.64-2,24.48,5.45l.57-.21c1.46-8.84,8.05-17.46,17.94-21.1,14.19-5.23,25.55-.47,31.04,14.43l18.29,49.58-21.49,7.93-16.55-44.85c-2.54-6.88-7.13-8.28-12.86-6.17-6.01,2.22-10.59,8.79-7.26,17.82l15.17,41.13-21.49,7.93-16.55-44.85c-2.54-6.88-7.13-8.28-12.86-6.17-6.02,2.22-10.59,8.79-7.26,17.82l15.17,41.13-21.49,7.93-26.01-70.5,21.49-7.93Zm-28.8,126c4.17-5.6,11.81-6.84,17.41-2.67,5.35,3.98,6.48,11.75,2.31,17.35-4.26,5.72-12.03,6.86-17.38,2.88-5.6-4.17-6.6-11.84-2.34-17.57Zm-59.15-141.46l6.01,20.23-76.04,22.59-6.01-20.23,76.04-22.59Zm-128.41,83.44l35.48,26.5,9.36,7.37.37-.49c-3.35-8.79-2.38-17.99,4.29-26.92,9.6-12.85,23.21-16.79,37.53-6.09l40.62,30.34-13.71,18.36-36.47-27.24c-7.77-5.42-13.32-3.09-17.71,2.78-5.3,7.09-4.7,16.5,3.86,22.9l33.04,24.68-13.71,18.35-96.67-72.21,13.71-18.35Zm-100.09-103.55l18.27,11.47-22.44,35.74,57.1-13.98,24.72,15.52-59.73,14.58,3.64,81.33-23.51-14.76-1.48-61.8-16.27,3.83-21.09,33.59-18.27-11.47,59.04-94.05Zm-24.4,302.04l-20.99,2.13-11.23-110.48,20.99-2.13,11.23,110.48Zm37.76,275.62c-8.75,21.79-24.23,29.25-39.8,24.19l7.86-19.58c7.48,1.81,13.79-1.98,17.28-10.67,3.19-7.95,1.55-14.08-3.75-16.21-4.12-1.65-7.92.58-11.46,5.99l-8.15,12.63c-8.59,13.3-19.32,17.88-31.39,13.04-13.54-5.44-17.82-22.03-10.49-40.29,7.68-19.13,21.37-27.66,36.62-23.07l-7.57,18.84c-6.42-1.04-12.02,2.69-14.92,9.9-2.9,7.21-1.43,12.93,3.28,14.82,3.83,1.54,7.39-.11,10.56-5l8.32-13.06c9.09-14.13,19.82-19.56,32.33-14.54,14.72,5.91,19.38,22.83,11.29,42.99Zm33.99-120.68l-6.78-12.1-.81.45c.14,10.1-3.71,17.98-12.42,22.86-18.88,10.58-38.05.96-51.71-23.41-13.65-24.37-11.75-45.58,7.29-56.25,8.72-4.88,17.09-4.7,25.65,1.11l.81-.45-17.82-31.8-10.61-1.9-.72-1.29,17.56-14.08,55.97,99.91,10.61,1.9.72,1.29-17.74,13.76Zm13.27-139.35c-20.49-7.53-25.65-28.36-16.01-54.57,9.57-26.05,26.82-38.63,47.65-30.97,20.84,7.66,25.24,28.4,16.94,50.97l-1.6,4.34-50.01-18.38c-6.88,20.33-3.85,34.06,9,38.79,9.9,3.64,18.76.98,27.71-4.6l3.93,5.39c-10.21,8.47-21.3,15.04-37.62,9.04Zm123.12,205.71l-32.44-5.05-14.15,90.92-21.32-3.32,14.15-90.92-32.45-5.05,2.93-18.81,86.21,13.42-2.93,18.81Zm8.24-79.86c-16.77,19.05-40.7,21.01-59.27,4.66-18.69-16.46-18.81-39.6-2.14-58.53l3.88-4.41,44.88,39.53c8-10.29,6.97-21.12-1.6-28.67-6.19-5.45-12.99-6.37-19.91-3.8l-15.71-13.84c12.42-9.78,31.52-8.18,47.11,5.55,18.93,16.67,19.75,40.22,2.76,59.51Zm43.18-154.62l-20.38-22.78-37.07,36.98,32.15,25.41-9.56,8.23-45.08-45.19,1.05-1.05,10.99.8,75.58-75.39-.9-10.86,1.05-1.05,45.08,45.19-8.13,9.41-25.46-32.08-34.18,34.1,22.73,20.43-7.86,7.84Zm102.09,270.87l-10.6-6.09-.29.54c6.09,7.99,6.16,18.45-.09,30-9.75,18-31.82,24.11-52.1,13.13-20.28-10.98-27.22-32.8-17.47-50.8,6.26-11.55,15.05-17.2,25.07-16.47l.29-.54-10.89-5.55,10.91-20.15,66.08,35.78-10.91,20.15Zm-20.43-135.34l-9.09,47.55-17.82-19.39,7.45-27.52-27.63,5.56-17.6-19.16,46.39-5.78,10.41-49.64,17.6,19.16-8.45,29.95,30.99-5.42,17.82,19.39-50.07,5.29Zm133.57,85.58c-2.24-1.33-4.81-1.9-8.93-2.09-7.78-.36-15.78,4.02-16.3,15.46l-1.82,39.67-22.89-1.05,3.44-75.07,22.89,1.05-.78,10.21.61.03c3.87-7.77,10.78-11.73,18.26-11.39,2.59.12,4.87.53,6.52,1.21l-1.01,21.97Zm15.5-210.2l-9.6,47.13,6.79,8.37-.3,1.45-29.91-6.09.3-1.45,9.52-5.05,9.6-47.13c3.1-15.23-1.01-21.92-10.44-23.84-9.07-1.85-17.65,4.15-22.3,15.85l-9.86,48.4,6.8,8.37-.3,1.45-29.92-6.09.3-1.45,9.52-5.05,9.6-47.13c3.1-15.23-1.19-21.95-10.44-23.84-9.06-1.85-17.65,4.15-22.3,15.85l-9.86,48.4,6.79,8.37-.3,1.45-29.91-6.09.3-1.45,9.52-5.05,13.7-67.25-6.79-8.37.3-1.45,22.49.81-2.84,13.96.91.18c5.87-8.44,14.26-11.64,23.15-9.83,10.33,2.1,18.36,9.03,19.77,21.59l.72.15c5.92-10.5,15.76-14.35,26.1-12.25,13.78,2.81,23.46,14.6,18.88,37.08Z"/>
    <path class="cls-2" d="m302.4,486.91c7.5,6.61,17.35,7.67,25.74.05l-28.69-25.27c-6.56,8.17-5.03,18.19,2.95,25.21Z"/>
    <path class="cls-2" d="m177.1,456.6c-8.52-10.28-18.63-13.95-28.15-8.61-12.75,7.14-12.7,22.38-2.21,41.1,10.4,18.56,23.45,26.73,36.21,19.58,9.52-5.33,11.59-16.03,7.45-28.35l-13.29-23.73Z"/>
    <path class="cls-2" d="m247.94,291.51c-11.29-4.15-20.83,3.58-28.13,20.21l36.12,13.28c5.21-17.4,3.64-29.21-7.99-33.49Z"/>
    <path class="cls-2" d="m435.58,600.9c-5.38,9.94-2.89,21.36,8.26,27.4,11.15,6.04,22.08,1.88,27.46-8.05,5.45-10.07,2.82-21.23-8.33-27.27-11.15-6.04-21.93-2.15-27.39,7.92Z"/>
  </g>
</svg>