<svg width="22" height="22" viewBox="0 0 22 22" fill="none" xmlns="http://www.w3.org/2000/svg">
<path d="M11.74 19H9.58V16.98C8.12 16.74 7.18 16.02 6.66 15.16L7.94 13.68C8.42 14.42 9.34 14.96 10.52 14.96C11.66 14.96 12.42 14.56 12.42 13.64C12.42 12.76 11.76 12.52 10.34 12.1C8.24 11.58 7.26 10.9 7.26 9.14C7.26 7.4 8.38 6.46 9.78 6.12V4H11.94V6.02C13.28 6.22 13.98 6.82 14.46 7.44L13.16 8.92C12.82 8.4 12.12 7.96 11.16 7.96C10.08 7.96 9.58 8.38 9.58 9.06C9.58 9.82 10.38 10.02 11.54 10.34C13.64 10.88 14.74 11.62 14.74 13.64C14.74 15.56 13.52 16.64 11.74 16.96V19Z" fill="black"/>
<circle cx="11" cy="11" r="10" stroke="black" stroke-width="2"/>
</svg>
